<svg version="1.1" id="b0692590-d82c-4a17-b229-0137d3280f46" xmlns="http://www.w3.org/2000/svg" x="0" y="0" viewBox="0 0 317.6 229.2" xml:space="preserve"><style>.st0{fill-rule:evenodd;clip-rule:evenodd;fill:#185181}</style><g id="e444d8cb-1470-4c75-b4d3-96e1c155d4f0"><path class="st0" d="M128.1 177.1V51.9h54.7c17 0 28.1 4.9 34.6 12.2C189.5 7.2 120.8-16.1 64 11.8s-80.2 96.6-52.2 153.4 96.6 80.2 153.4 52.2c22.4-11 40.6-29.1 51.8-51.5-7.6 7-18.6 11.1-32.2 11.1h-56.7zm-27.1 0H73.9V51.9H101v125.2zm53.6-20.9h24.5c14.7 0 21.3-6.2 21.3-17.4 0-10.2-6.5-16.5-21.4-16.5h-24.4v33.9zm43.3-69.6c0-9.1-6.9-13.8-17.3-13.8h-26v28.5h25.1c12.9 0 18.2-5.8 18.2-14.7z" id="fef740cf-ea15-490c-9bfd-48d635343ef2"/><path class="st0" d="M317.6 74V51.9h-81.3v125.2h27.1v-50.2h54.2v-22.1h-54.2V74z" id="f73f2ed1-d72b-44ea-98c5-918131e35620"/></g></svg>